<?xml version="1.0" encoding="UTF-8" standalone="no"?>
<?xml-stylesheet href="styles.css" type="text/css"?>
<!DOCTYPE svg PUBLIC "-//W3C//DTD SVG 1.1//EN"
 "http://www.w3.org/Graphics/SVG/1.1/DTD/svg11.dtd">
<!-- Generated by graphviz version 2.40.1 (20161225.0304)
 -->
<!-- Title: Hello Pages: 1 -->
<svg width="430pt" height="207pt"
 viewBox="0.00 0.00 430.00 207.00" xmlns="http://www.w3.org/2000/svg" xmlns:xlink="http://www.w3.org/1999/xlink">
<g id="graph0" class="graph" transform="scale(1 1) rotate(0) translate(4 203)">
<title>Hello</title>
<polygon fill="#ffffff" stroke="transparent" points="-4,4 -4,-203 426,-203 426,4 -4,4"/>
<g id="clust1" class="cluster">
<title>cluster_Hello</title>
<polygon fill="#fff8dc" stroke="#000000" points="8,-8 8,-191 414,-191 414,-8 8,-8"/>
<text text-anchor="middle" x="211" y="-175.8" font-family="Times,serif" font-size="14.00" fill="#000000">Hello</text>
</g>
<!-- cluster_Hello_clock -->
<g id="node1" class="node">
<title>cluster_Hello_clock</title>
<polygon fill="#cccccc" stroke="#000000" points="70,-160 16,-160 16,-124 70,-124 70,-160"/>
<text text-anchor="middle" x="43" y="-138.3" font-family="Times,serif" font-size="14.00" fill="#000000">clock</text>
</g>
<!-- cluster_Hello_reset -->
<g id="node2" class="node">
<title>cluster_Hello_reset</title>
<polygon fill="#cccccc" stroke="#000000" points="70,-106 16,-106 16,-70 70,-70 70,-106"/>
<text text-anchor="middle" x="43" y="-84.3" font-family="Times,serif" font-size="14.00" fill="#000000">reset</text>
</g>
<!-- cluster_Hello_io_rst -->
<g id="node3" class="node">
<title>cluster_Hello_io_rst</title>
<polygon fill="#cccccc" stroke="#000000" points="70,-52 16,-52 16,-16 70,-16 70,-52"/>
<text text-anchor="middle" x="43" y="-30.3" font-family="Times,serif" font-size="14.00" fill="#000000">io_rst</text>
</g>
<!-- mux_733494952 -->
<g id="node6" class="node">
<title>mux_733494952</title>
<polygon fill="#afeeee" stroke="transparent" points="114,-20 114,-70 180,-70 180,-20 114,-20"/>
<polygon fill="none" stroke="#000000" points="114,-45 114,-70 138,-70 138,-45 114,-45"/>
<text text-anchor="start" x="122.5" y="-53.8" font-family="Times,serif" font-size="14.00" fill="#000000">7</text>
<polygon fill="none" stroke="#000000" points="138,-20 138,-70 161,-70 161,-20 138,-20"/>
<text text-anchor="start" x="143" y="-41.3" font-family="Times,serif" font-size="14.00" fill="#000000">a?</text>
<polygon fill="none" stroke="#000000" points="161,-20 161,-70 180,-70 180,-20 161,-20"/>
<text text-anchor="start" x="166" y="-41.3" font-family="Times,serif" font-size="14.00" fill="#000000">●</text>
<polygon fill="none" stroke="#000000" points="114,-20 114,-45 138,-45 138,-20 114,-20"/>
<text text-anchor="start" x="119" y="-28.8" font-family="Times,serif" font-size="14.00" fill="#000000">42</text>
</g>
<!-- cluster_Hello_io_rst&#45;&gt;mux_733494952 -->
<g id="edge1" class="edge">
<title>cluster_Hello_io_rst&#45;&gt;mux_733494952:select</title>
<path fill="none" stroke="#000000" d="M70.0006,-20.059C97.7363,-7.0338 138.1841,7.9138 147.8626,-10.1402"/>
<polygon fill="#000000" stroke="#000000" points="144.4608,-10.9685 150,-20 151.3019,-9.4855 144.4608,-10.9685"/>
</g>
<!-- cluster_Hello_io_out -->
<g id="node4" class="node">
<title>cluster_Hello_io_out</title>
<polygon fill="#e0ffff" stroke="#000000" points="406,-63 352,-63 352,-27 406,-27 406,-63"/>
<text text-anchor="middle" x="379" y="-41.3" font-family="Times,serif" font-size="14.00" fill="#000000">io_out</text>
</g>
<!-- op_pad_1 -->
<g id="node5" class="node">
<title>op_pad_1</title>
<polygon fill="#d8bfd8" stroke="transparent" points="232,-33.5 232,-58.5 308,-58.5 308,-33.5 232,-33.5"/>
<polygon fill="none" stroke="#000000" points="232,-33 232,-58 251,-58 251,-33 232,-33"/>
<text text-anchor="start" x="237" y="-41.8" font-family="Times,serif" font-size="14.00" fill="#000000">●</text>
<polygon fill="none" stroke="#000000" points="251,-33 251,-58 289,-58 289,-33 251,-33"/>
<text text-anchor="start" x="256" y="-41.8" font-family="Times,serif" font-size="14.00" fill="#000000"> pad </text>
<polygon fill="none" stroke="#000000" points="289,-33 289,-58 308,-58 308,-33 289,-33"/>
<text text-anchor="start" x="294" y="-41.8" font-family="Times,serif" font-size="14.00" fill="#000000">●</text>
</g>
<!-- op_pad_1&#45;&gt;cluster_Hello_io_out -->
<g id="edge3" class="edge">
<title>op_pad_1:out&#45;&gt;cluster_Hello_io_out</title>
<path fill="none" stroke="#000000" d="M308,-45C318.9291,-45 330.8045,-45 341.6597,-45"/>
<polygon fill="#000000" stroke="#000000" points="341.6905,-48.5001 351.6905,-45 341.6904,-41.5001 341.6905,-48.5001"/>
</g>
<!-- mux_733494952&#45;&gt;op_pad_1 -->
<g id="edge2" class="edge">
<title>mux_733494952:out&#45;&gt;op_pad_1:in1</title>
<path fill="none" stroke="#000000" d="M180,-45C199.3194,-45 206.5265,-45 221.8716,-45"/>
<polygon fill="#000000" stroke="#000000" points="222,-48.5001 232,-45 222,-41.5001 222,-48.5001"/>
</g>
</g>
</svg>
